<svg width="1000" height="1000" xmlns="http://www.w3.org/2000/svg" xmlns:xlink="http://www.w3.org/1999/xlink" xml:space="preserve" overflow="hidden"><g transform="translate(12 75)"><path d="M579.556 289.778C579.556 129.738 449.818 0 289.778 0 129.738 0 0 129.738 0 289.778 0 434.414 105.967 554.297 244.5 576.035L244.5 373.542 170.924 373.542 170.924 289.778 244.5 289.778 244.5 225.936C244.5 153.31 287.762 113.195 353.953 113.195 385.658 113.195 418.82 118.854 418.82 118.854L418.82 190.167 382.279 190.167C346.282 190.167 335.056 212.504 335.056 235.42L335.056 289.778 415.424 289.778 402.576 373.542 335.056 373.542 335.056 576.035C473.588 554.297 579.556 434.414 579.556 289.778" fill="#1877F2" transform="matrix(1 0 0 1.00077 350.222 70)"/><path d="M402.576 373.542 415.424 289.778 335.056 289.778 335.056 235.42C335.056 212.504 346.282 190.167 382.279 190.167L418.82 190.167 418.82 118.854C418.82 118.854 385.658 113.195 353.953 113.195 287.762 113.195 244.5 153.31 244.5 225.936L244.5 289.778 170.924 289.778 170.924 373.542 244.5 373.542 244.5 576.035C259.478 578.383 274.617 579.56 289.778 579.556 305.182 579.556 320.302 578.35 335.056 576.035L335.056 373.542 402.576 373.542" fill="#FFFFFF" transform="matrix(1 0 0 1.00077 350.222 70)"/></g></svg>