<svg height="660" viewBox="0 0 600 660" width="600" xmlns="http://www.w3.org/2000/svg" xmlns:xlink="http://www.w3.org/1999/xlink"><radialGradient id="a" cx="-444.41031" cy="376.50751" gradientTransform="matrix(1.3534 0 0 -1.35033 823.4053 727.54051)" gradientUnits="userSpaceOnUse" r="299.82169"><stop offset="0" stop-color="#fff" stop-opacity=".3137"/><stop offset=".19" stop-color="#fff" stop-opacity=".251"/><stop offset=".6" stop-color="#6b6b6b" stop-opacity=".1255"/><stop offset="1" stop-opacity=".1255"/></radialGradient><path d="m300 1.49998h-298.5v258.83639c0 285.76097 298.5 398.16363 298.5 398.16363s298.5-112.40266 298.5-398.16363v-258.83639z" fill="#e20909"/><g fill="#fff" stroke="#000" stroke-linecap="round" stroke-linejoin="round" stroke-width="2.975023" transform="matrix(1.0042041 0 0 1.0041998 -1.261233 -2.089242)"><path d="m324.20001 436.0004c0-26.8 1.2-222.1 150.69999-222.8 46.9.4 70.5 32.1 67.3 72.9-3.2 42.3-82.3171 91.26164-86.5 99s-2.94472 16.56141 3.2 11.3c11.27296-9.65248 14.41885-13.48861 17.6-7.9 6.39108 11.22778-23.6 30.6-31.7 22.3-8-7.9-9.26528-17.79226 5.2-45.3 10.02571-19.06529 13.2-52.1-15.6-52.1-35.7-1.5-88.49999 49.1-88.49999 122.8 0 29.1-2 67.6 24.79999 78.6 10 3.4 15.2 6 29.7-11.3 21.6 25.3-.4 43.1-20.8 44.6-30.49999-.3-55.39999-17.7-55.39999-112.1z"/><path d="m490.5 320.4004c13.6-12.5 5.6-53.3-40.1-50.6s-112.99999 60.8-115.39999 167.3c-2.8 106.5 53.69999 93.7 53.69999 93.7" fill="none"/><path d="m275.8 436.0004c0-26.8-1.2-222.1-150.7-222.8-46.9.4-70.5 32.1-67.3 72.9 3.2 42.3 82.3171 91.26164 86.5 99s2.94472 16.56141-3.2 11.3c-11.27296-9.65248-14.41885-13.48861-17.6-7.9-6.39108 11.22778 23.6 30.6 31.7 22.3 8-7.9 9.26528-17.79226-5.2-45.3-10.02571-19.06529-13.2-52.1 15.6-52.1 35.7-1.5 88.5 49.1 88.5 122.8 0 29.1 2 67.6-24.8 78.6-10 3.4-15.2 6-29.7-11.3-21.6 25.3.4 43.1 20.8 44.6 30.5-.3 55.4-17.7 55.4-112.1z"/><path d="m109.5 320.4004c-13.6-12.5-5.6-53.3 40.1-50.6s113 60.8 115.4 167.3c2.8 106.5-53.7 93.7-53.7 93.7" fill="none"/><path d="m300 36.000221c-14 32.500004-79.9 66.500389-82.5 129.900399 0 98.6 62.50078 79.69961 67.30078 274.59961.4 74.39999-15.60156 106.90039-15.60156 106.90039l30.80078 70.59961 30.80078-70.59961s-16.00156-32.5004-15.60156-106.90039c4.8-194.9 67.30078-175.99961 67.30078-274.59961-2.6-63.4-68.5-97.400395-82.5-129.900399z"/><path d="m300.08624 125.5004v450.6"/><path d="m237.7 411.0004h123.8v51.4h-123.8z"/><path d="m229.3 425.4004h141c6.4 0 12 4.9 12 11.3s-5.2 11.3-12 11.3h-141c-6.4 0-12-4.9-12-11.3s5.6-11.3 12-11.3z"/></g><path d="m299.9 658.5s298.6-112.40266 298.6-398.16364v-258.83639h-597v258.83639c0 285.76098 298.4 398.16364 298.4 398.16364z" fill="url(#a)"/><path d="m300 1.4998494h-298.5v258.7959406c0 285.71633 298.5 398.10142 298.5 398.10142s298.5-112.38509 298.5-398.10142v-258.7959406z" fill="none" stroke="#000" stroke-miterlimit="10" stroke-width="3"/></svg>